<?xml version="1.0" encoding="UTF-8"?>
<svg width="512" height="512" viewBox="0 0 24 24" xmlns="http://www.w3.org/2000/svg">
  <defs>
    <linearGradient id="gradient" x1="0%" y1="0%" x2="100%" y2="0%">
      <stop offset="0%" stop-color="#FF8156"/>
      <stop offset="100%" stop-color="#EF4444"/>
    </linearGradient>
  </defs>
  <path d="M12,2 C6.48,2 2,6.48 2,12 C2,17.52 6.48,22 12,22 C17.52,22 22,17.52 22,12 C22,6.48 17.52,2 12,2 Z M16.88,8.54 L10.88,17.94 C10.78,18.08 10.63,18.17 10.46,18.19 C10.29,18.21 10.12,18.15 10,18.04 L6.8,15.29 C6.54,15.07 6.5,14.7 6.71,14.45 C6.92,14.2 7.29,14.16 7.54,14.37 L10.07,16.54 L15.57,7.86 C15.76,7.59 16.13,7.52 16.4,7.71 C16.67,7.9 16.74,8.27 16.55,8.54 L16.88,8.54 Z" fill="url(#gradient)"/>
</svg>
