<?xml version="1.0" encoding="UTF-8"?>
<svg width="512" height="512" viewBox="0 0 24 24" xmlns="http://www.w3.org/2000/svg">
  <defs>
    <linearGradient id="gradient" x1="0%" y1="0%" x2="100%" y2="0%">
      <stop offset="0%" stop-color="#FF8156"/>
      <stop offset="100%" stop-color="#EF4444"/>
    </linearGradient>
  </defs>
  <path d="M12,2 C6.5,2 2,6.5 2,12 C2,17.5 6.5,22 12,22 C17.5,22 22,17.5 22,12 C22,6.5 17.5,2 12,2 Z M8,13.5 C7.17,13.5 6.5,12.83 6.5,12 C6.5,11.17 7.17,10.5 8,10.5 C8.83,10.5 9.5,11.17 9.5,12 C9.5,12.83 8.83,13.5 8,13.5 Z M12,13.5 C11.17,13.5 10.5,12.83 10.5,12 C10.5,11.17 11.17,10.5 12,10.5 C12.83,10.5 13.5,11.17 13.5,12 C13.5,12.83 12.83,13.5 12,13.5 Z M16,13.5 C15.17,13.5 14.5,12.83 14.5,12 C14.5,11.17 15.17,10.5 16,10.5 C16.83,10.5 17.5,11.17 17.5,12 C17.5,12.83 16.83,13.5 16,13.5 Z" fill="url(#gradient)"/>
</svg>
