<?xml version="1.0" encoding="UTF-8"?>
<svg width="512" height="512" viewBox="0 0 24 24" xmlns="http://www.w3.org/2000/svg">
  <defs>
    <linearGradient id="gradient" x1="0%" y1="0%" x2="100%" y2="0%">
      <stop offset="0%" stop-color="#FF8156"/>
      <stop offset="100%" stop-color="#EF4444"/>
    </linearGradient>
  </defs>
  <path d="M21,9.5 L17.5,9.5 L17.5,3.5 C17.5,2.67 16.83,2 16,2 L8,2 C7.17,2 6.5,2.67 6.5,3.5 L6.5,9.5 L3,9.5 C2.17,9.5 1.5,10.17 1.5,11 C1.5,11.25 1.55,11.5 1.7,11.71 L11.2,21.21 C11.4,21.42 11.7,21.5 12,21.5 C12.3,21.5 12.6,21.42 12.8,21.21 L22.3,11.71 C22.5,11.5 22.56,11.25 22.56,11 C22.5,10.17 21.83,9.5 21,9.5 Z" fill="url(#gradient)"/>
</svg>
